# xmcd CD database file
# Copyright (C) 1993-1998 Ti Kan
#
# Track frame offsets:
#	150
#	13667
#	26800
#	42145
#	53182
#	68622
#	79575
#	97537
#	112925
#	127305
#	142960
#	157580
#	171142
#	186090
#
# Disc length: 2641 seconds
#
# Revision: 0
# Processed by: cddbd v1.4b41PL1 Copyright (c) Steve Scherf et al.
# Submitted via: CDmax 1.5
#
DISCID=a40a4f0e
DTITLE=J. P. Lepage - My Best Regards
DYEAR=1900
DGENRE=
TTITLE0=My Best Regards
TTITLE1=Say Baby
TTITLE2=Please Reassure
TTITLE3=She Sure Can Cook
TTITLE4=Gonna Change My Name
TTITLE5=Every Night About This Time
TTITLE6=Blue Duke
TTITLE7=Eastbound Train
TTITLE8=I Wanna Walk
TTITLE9=Gettin' Drunk
TTITLE10=Cuttin' In
TTITLE11=Pearl Teardrops
TTITLE12=So Small A Stone
TTITLE13=Chicken Train
EXTD=
EXTT0=
EXTT1=
EXTT2=
EXTT3=
EXTT4=
EXTT5=
EXTT6=
EXTT7=
EXTT8=
EXTT9=
EXTT10=
EXTT11=
EXTT12=
EXTT13=
PLAYORDER=
